<svg width="41" height="41" viewBox="0 0 41 41" fill="none" xmlns="http://www.w3.org/2000/svg">
<g clip-path="url(#clip0_219_8834)">
<path d="M29.4636 4.98951L21.1007 0.160957C20.7289 -0.0536523 20.2711 -0.0536523 19.8994 0.160957L11.5366 4.98951C11.165 5.20412 10.936 5.60058 10.936 6.02972V15.6862C10.936 16.1153 11.165 16.5119 11.5366 16.7264L19.8995 21.555C20.2712 21.7696 20.729 21.7696 21.1008 21.555L29.4636 16.7265C29.8352 16.5119 30.0641 16.1154 30.0641 15.6863V6.02972C30.0641 5.60058 29.8351 5.20412 29.4636 4.98951Z" fill="#FFD321"/>
<path d="M21.1006 21.555L29.4634 16.7265C29.835 16.5119 30.064 16.1154 30.064 15.6863V6.02972C30.064 5.60058 29.835 5.20404 29.4634 4.98951L21.1006 0.160957C20.9148 0.0536523 20.7074 0 20.5 0V21.716C20.7074 21.716 20.9148 21.6623 21.1006 21.555Z" fill="#FFB454"/>
<path d="M24.5019 10.1913L21.4997 5.68816C21.2769 5.354 20.9019 5.15332 20.5003 5.15332C20.0987 5.15332 19.7237 5.354 19.5009 5.68816L16.4986 10.1912C16.2296 10.5947 16.2296 11.1203 16.4986 11.5239L19.5009 16.0276C19.7237 16.3618 20.0987 16.5625 20.5003 16.5625C20.9019 16.5625 21.2769 16.3618 21.4997 16.0276L24.5019 11.5239C24.771 11.1204 24.771 10.5947 24.5019 10.1913Z" fill="#FFF16B"/>
<path d="M20.5 16.5625C20.9016 16.5625 21.2766 16.3618 21.4994 16.0276L24.5017 11.5239C24.7706 11.1203 24.7706 10.5947 24.5017 10.1912L21.4994 5.68816C21.2766 5.354 20.9016 5.15332 20.5 5.15332V16.5625Z" fill="#FFD321"/>
<path d="M16.9639 25.395L13.9226 22.3538C12.9181 21.3493 11.2895 21.3493 10.285 22.3538C9.28049 23.3583 9.28049 24.9869 10.285 25.9914L13.4679 29.1744C13.937 29.6435 13.937 30.404 13.4679 30.8731C12.9988 31.3421 12.2383 31.3421 11.7692 30.8731L5.85803 24.9618C5.68106 24.7849 5.56374 24.5569 5.52258 24.3099L3.83117 14.1619C3.59807 12.7633 2.28887 11.8747 1.11829 12.0057C0.510014 12.0733 0.0498047 12.5875 0.0498047 13.1995V25.9313C0.0498047 26.2087 0.145738 26.4774 0.32135 26.692L8.23459 36.3638L8.23291 39.7987C8.23291 40.4621 8.77071 40.9999 9.43408 40.9999H16.7117C17.375 40.9999 17.9128 40.4621 17.9128 39.7987L17.9122 36.4326L18.6042 35.7405C20.0959 34.2488 20.768 32.1179 20.402 30.0404C20.0489 28.0359 18.7705 26.3148 16.9639 25.395Z" fill="#FFBA9A"/>
<path d="M24.0361 25.3951L27.0774 22.3539C28.0819 21.3494 29.7105 21.3494 30.715 22.3539C31.7195 23.3584 31.7195 24.987 30.715 25.9915L27.532 29.1744C27.0629 29.6435 27.0629 30.404 27.532 30.8731C28.0011 31.3422 28.7616 31.3422 29.2307 30.8731L35.1419 24.9619C35.3189 24.785 35.4362 24.557 35.4774 24.31L37.1689 14.1619C37.402 12.7633 38.7112 11.8747 39.8818 12.0057C40.49 12.0733 40.9503 12.5874 40.9503 13.1995V25.9313C40.9503 26.2087 40.8543 26.4774 40.6787 26.692L32.7655 36.3638L32.7671 39.7988C32.7671 40.4622 32.2293 41 31.5659 41H24.2883C23.625 41 23.0871 40.4622 23.0871 39.7988L23.0878 36.4326L22.3958 35.7406C20.9041 34.2489 20.232 32.118 20.598 30.0405C20.9511 28.036 22.2294 26.3149 24.0361 25.3951Z" fill="#FFBA9A"/>
</g>
<defs>
<clipPath id="clip0_219_8834">
<rect width="41" height="41" fill="white"/>
</clipPath>
</defs>
</svg>
