<svg width="42" height="41" viewBox="0 0 42 41" fill="none" xmlns="http://www.w3.org/2000/svg">
<g clip-path="url(#clip0_219_8960)">
<path d="M20.8078 0.0880861C20.7598 0.224219 19.6387 4.55645 19.6387 4.6125C19.6387 4.62852 19.3664 4.64453 19.0381 4.64453H18.4375V4.08398V3.52344H15.2744H12.1113V4.4043V5.28516H12.7119H13.3125V5.00488V4.72461H15.2744H17.2363V5.00488V5.28516L18.974 5.26914L20.7037 5.24512L21.2162 3.2832C21.5045 2.20215 21.7447 1.30527 21.7607 1.29727C21.8488 1.20117 22.4334 1.51348 22.7217 1.79375C23.2262 2.29824 23.3223 2.68262 23.3223 4.1V5.28516H26.1891C28.3592 5.27715 29.0078 5.26113 28.8877 5.18906C28.7996 5.14102 28.7115 5.07695 28.6875 5.04492C28.6475 4.99688 27.7826 4.64453 27.6865 4.64453C27.6625 4.64453 26.9418 4.64453 26.085 4.64453H24.5234V3.73965C24.5234 3.25117 24.4834 2.69062 24.4434 2.49844C24.123 1.11309 22.9379 0.120117 21.4965 0.0240235C20.984 -0.0160155 20.8318 0 20.8078 0.0880861Z" fill="#FFC344"/>
<path d="M12.1113 10.5703V15.8555H15.2744H18.4375V15.2949V14.7344H18.6777C18.8139 14.7344 19.2463 14.8865 19.6387 15.0707L20.3594 15.407V15.8875C20.3594 16.7203 20.3754 16.7363 21 16.7363C21.6086 16.7363 21.6406 16.7043 21.6406 16.0316V15.6953H23.5064C25.6205 15.6953 26.093 15.6152 26.8938 15.1748C27.5104 14.8305 28.127 14.1578 28.4393 13.5092C28.7916 12.7564 29.8406 8.02383 29.8406 7.16699C29.8406 6.46231 29.6885 6.03789 29.2641 5.54141L29.0398 5.28516H26.1811H23.3223V5.56543V5.8457H25.4443C27.8066 5.8457 27.9188 5.86172 28.3432 6.3502C28.7756 6.83867 28.7676 6.95078 28.135 9.88164C27.3822 13.341 27.2141 13.7014 26.0449 14.2459C25.6125 14.4541 25.5805 14.4541 23.4184 14.4781L21.2242 14.5021L20.2232 14.0217C19.3744 13.6053 19.1502 13.5332 18.7898 13.5332H18.3574V9.68945V5.8457H19.4785C20.3193 5.8457 20.5996 5.82168 20.5996 5.7416C20.5996 5.69355 20.6236 5.56543 20.6477 5.46133L20.6957 5.28516H18.966H17.2363V9.96973V14.6543H15.2744H13.3125V9.96973V5.28516H12.7119H12.1113V10.5703Z" fill="#FFC344"/>
<path d="M33.1719 9.44922V10.0898H33.8125H34.4531V9.44922V8.80859H33.8125H33.1719V9.44922Z" fill="#ECEC6B"/>
<path d="M31.1699 11.4512V12.0918H31.8105H32.4512V11.4512V10.8105H31.8105H31.1699V11.4512Z" fill="#F6A96C"/>
<path d="M35.1738 11.4512V12.0918H35.8145H36.4551V11.4512V10.8105H35.8145H35.1738V11.4512Z" fill="#F6A96C"/>
<path d="M33.1719 13.4531V14.0938H33.8125H34.4531V13.4531V12.8125H33.8125H33.1719V13.4531Z" fill="#ECEC6B"/>
<path d="M7.54688 14.2539V14.8945H8.1875H8.82812V14.2539V13.6133H8.1875H7.54688V14.2539Z" fill="#F6A96C"/>
<path d="M5.54492 15.9916C5.54492 16.7123 5.56895 16.7363 6.18555 16.7363C6.80215 16.7363 6.82617 16.7123 6.82617 15.9916C6.82617 15.7837 6.65767 15.6152 6.4498 15.6152H6.18555H5.92129C5.71343 15.6152 5.54492 15.7837 5.54492 15.9916Z" fill="#ECEC6B"/>
<path d="M9.54883 15.9916C9.54883 16.7123 9.57285 16.7363 10.1895 16.7363C10.8061 16.7363 10.8301 16.7123 10.8301 15.9916C10.8301 15.7837 10.6616 15.6152 10.4537 15.6152H10.1895H9.9252C9.71733 15.6152 9.54883 15.7837 9.54883 15.9916Z" fill="#ECEC6B"/>
<path d="M20.351 21.6932L20.3189 26.9223L19.5502 26.1695L18.7895 25.4168L18.8215 24.7281C18.8855 23.527 18.6293 22.1336 18.1889 21.2607C17.34 19.6111 15.8986 18.8023 13.5523 18.6822C12.7676 18.6502 11.4383 18.7463 11.3342 18.8504C11.3102 18.8664 11.2621 19.2508 11.2141 19.6992C11.102 20.7082 11.2221 22.1336 11.4703 22.9023C11.6865 23.551 12.0469 24.2797 12.2631 24.5199C12.3592 24.616 12.4313 24.7201 12.4313 24.7521C12.4313 24.9043 13.7766 25.7932 14.0488 25.8172C14.0729 25.8252 14.1289 25.8492 14.1609 25.8813C14.193 25.9213 14.3051 25.9453 14.4012 25.9453C14.5053 25.9453 14.6094 25.9854 14.6414 26.0334C14.6654 26.0814 14.7615 26.1055 14.8416 26.0814C14.9297 26.0574 14.9938 26.0734 14.9938 26.1055C14.9938 26.1455 15.0578 26.1775 15.1379 26.1775C15.21 26.1775 15.5063 26.2176 15.7945 26.2656C16.0828 26.3137 16.6834 26.3377 17.1318 26.3217L17.9406 26.2896L18.9256 27.2746L19.9186 28.2676H21.0236H22.1287L23.1217 27.2826L24.1227 26.3057H25.0596C25.5801 26.3057 26.1326 26.2736 26.2848 26.2416C26.4369 26.2096 26.6611 26.1775 26.7893 26.1855C26.9094 26.1855 27.0055 26.1615 27.0055 26.1215C27.0055 26.0895 27.0695 26.0574 27.1496 26.0494C27.3418 26.0414 27.566 25.9773 27.8463 25.8572C27.9824 25.8012 28.1105 25.7611 28.1506 25.7691C28.1826 25.7771 28.2066 25.7451 28.2066 25.7051C28.2066 25.657 28.2627 25.625 28.3268 25.625C28.3988 25.625 28.551 25.5609 28.6711 25.4809C29.648 24.8563 30.2647 23.9354 30.617 22.582C30.7611 22.0535 30.8012 21.6691 30.8012 20.8203C30.8092 20.2277 30.7771 19.5391 30.7451 19.2908C30.665 18.7543 30.7051 18.7703 29.3918 18.6902C27.6941 18.5781 26.0125 18.9865 25.0275 19.7393C24.3309 20.2758 23.7383 21.1807 23.458 22.1496C23.2738 22.7822 23.1377 24.0074 23.1777 24.7521L23.2018 25.4248L22.425 26.2256L21.6482 27.0264L21.6322 21.7412C21.6242 18.8344 21.6082 16.5201 21.5842 16.5922C21.5521 16.7123 21.4561 16.7363 20.9996 16.7363C20.5432 16.7363 20.4471 16.7123 20.415 16.5922C20.391 16.5201 20.367 18.8104 20.351 21.6932ZM14.8736 20.0676C15.9066 20.3398 16.6834 20.9324 17.1078 21.7572C17.4201 22.3818 17.5563 23.0225 17.6123 24.1355L17.6604 25.1686L16.6273 25.1205C16.0588 25.0885 15.3781 25.0084 15.1219 24.9363C13.7285 24.568 12.9117 23.7352 12.5514 22.3418C12.4072 21.7893 12.2951 20.2037 12.3832 19.9715C12.4313 19.8514 12.5273 19.8434 13.4162 19.8834C13.9527 19.9154 14.6094 19.9955 14.8736 20.0676ZM29.6 20.8604C29.576 23.1746 28.7271 24.4398 26.8773 24.9363C26.6211 25.0084 25.9404 25.0885 25.3719 25.1205L24.3389 25.1686L24.3869 24.1355C24.4109 23.567 24.491 22.8863 24.5631 22.6221C25.0836 20.7322 26.477 19.8514 28.8873 19.8914L29.608 19.8994L29.6 20.8604Z" fill="#03ABB5"/>
<path d="M7.54688 18.2578V18.8984H8.1875H8.82812V18.2578V17.6172H8.1875H7.54688V18.2578Z" fill="#F6A96C"/>
<path d="M20.4395 29.9812V30.9742L20.1832 31.0303C20.0391 31.0623 19.8709 31.1184 19.7988 31.1504C19.7348 31.1824 19.5266 31.2785 19.3424 31.3506C19.1502 31.4307 18.998 31.5268 18.998 31.5668C18.998 31.5988 18.958 31.6309 18.918 31.6309C18.8139 31.6309 18.3094 32.1113 18.4055 32.1113C18.5656 32.1193 17.893 32.3676 17.5166 32.4396C16.9641 32.5438 16.3154 32.8881 15.899 33.2885C15.6107 33.5768 15.4906 33.6328 15.1543 33.6648C14.5057 33.7289 14.1613 33.857 13.6328 34.2094C13.0963 34.5617 12.752 34.9701 12.5518 35.4986C12.4557 35.7549 12.3275 35.891 12.0152 36.0752C11.4947 36.3875 10.702 37.1803 10.3656 37.7328C10.0693 38.2373 9.81309 38.926 9.74902 39.3904L9.70898 39.7188H10.3016H10.8941L10.9422 39.4465C11.1104 38.5416 12.0232 37.4045 12.9602 36.932C13.4166 36.6998 13.4406 36.6678 13.5447 36.2754C13.801 35.2824 14.802 34.7059 15.883 34.9381C16.1393 34.9861 16.1793 34.9781 16.2594 34.7939C16.4275 34.4176 16.9961 33.8971 17.4205 33.7129C17.6447 33.6088 18.0611 33.5127 18.3334 33.4887C18.8139 33.4566 18.8459 33.4326 19.0941 33.1123C19.4545 32.6398 19.999 32.2875 20.5436 32.1754C21.4164 31.9912 22.3213 32.3516 22.9059 33.1123C23.1541 33.4326 23.1861 33.4566 23.6666 33.4887C23.9389 33.5127 24.3553 33.6088 24.5795 33.7129C25.0039 33.8971 25.5725 34.4176 25.7406 34.7939C25.8207 34.9781 25.8607 34.9861 26.117 34.9381C27.198 34.7059 28.199 35.2824 28.4553 36.2754C28.5594 36.6678 28.5834 36.6998 29.0398 36.932C29.9768 37.4045 30.8896 38.5416 31.0578 39.4385L31.1059 39.7107L31.7305 39.7348L32.3471 39.7588L32.243 39.3023C31.9146 37.909 31.1139 36.7639 29.9928 36.0912C29.7605 35.9471 29.5684 35.8109 29.5684 35.7789C29.5684 35.7389 29.4883 35.5467 29.4002 35.3465C29.184 34.898 28.5594 34.2574 28.1029 34.0252C27.7346 33.833 27.0139 33.6408 26.6615 33.6328C26.5094 33.6328 26.3252 33.5207 26.077 33.2725C25.6525 32.8641 24.8918 32.4717 24.3633 32.3916C23.8908 32.3195 23.7547 32.2395 23.3303 31.823C23.1381 31.6309 22.9539 31.4867 22.9219 31.5107C22.8818 31.5348 22.8418 31.5268 22.8258 31.4947C22.7937 31.4066 22.2973 31.1744 21.9049 31.0543L21.5605 30.9502V29.9732V28.9883H21H20.4395V29.9812Z" fill="#03ABB5"/>
<path d="M0.5 40.3754V41H21H41.5V40.3754V39.7588H21H0.5V40.3754Z" fill="#F6A96C"/>
<path d="M13.3525 11.0107V14.6143H15.2744H17.1963V11.0107V7.40723L17.1803 10.9867L17.1562 14.5742H15.2744H13.3926L13.3686 10.9867L13.3525 7.40723V11.0107Z" fill="#9696C1"/>
<path d="M18.3975 10.4263V13.4933L18.7818 13.5013L19.1582 13.5093L18.7979 13.4772L18.4375 13.4452L18.4135 10.4022L18.3975 7.36729V10.4263Z" fill="#9696C1"/>
<path d="M22.1848 14.4702C22.7213 14.4862 23.6022 14.4862 24.1467 14.4702C24.6832 14.4622 24.2428 14.4461 23.1618 14.4461C22.0807 14.4461 21.6403 14.4622 22.1848 14.4702Z" fill="#9696C1"/>
<path d="M12.8156 19.9155C12.9518 19.9315 13.192 19.9315 13.3362 19.9155C13.4723 19.8995 13.3602 19.8834 13.0719 19.8834C12.7836 19.8834 12.6715 19.8995 12.8156 19.9155Z" fill="#9696C1"/>
<path d="M28.6711 19.9155C28.8073 19.9315 29.0475 19.9315 29.1916 19.9155C29.3278 19.8995 29.2156 19.8834 28.9274 19.8834C28.6391 19.8834 28.527 19.8995 28.6711 19.9155Z" fill="#9696C1"/>
<path d="M12.3751 20.3799C12.3751 20.5561 12.3911 20.6201 12.4072 20.516C12.4232 20.4199 12.4232 20.2758 12.4072 20.1957C12.3831 20.1236 12.3671 20.2037 12.3751 20.3799Z" fill="#9696C1"/>
<path d="M29.584 20.42C29.584 20.5722 29.6 20.6362 29.624 20.5561C29.64 20.4841 29.64 20.3559 29.624 20.2759C29.6 20.2038 29.584 20.2679 29.584 20.42Z" fill="#9696C1"/>
<path d="M21.6887 1.77773C21.6246 2.00996 21.3844 2.92285 21.1602 3.80371C20.9359 4.68457 20.7117 5.52539 20.6717 5.66152L20.5836 5.92578H19.5105H18.4375V7.40723V8.88867H23.3543H28.2711L28.4473 8.11992C28.7035 7.00684 28.6074 6.57441 28.0148 6.13398C27.8066 5.97383 27.6705 5.96582 25.5164 5.9418L23.2422 5.91777V4.42832C23.2422 2.7627 23.1861 2.47441 22.7777 2.00195C22.5535 1.7377 22.009 1.36133 21.8488 1.36133C21.8328 1.36133 21.7607 1.55352 21.6887 1.77773Z" fill="white"/>
<path d="M13.3926 6.84668V8.88867H15.2744H17.1562V6.84668V4.80469H15.2744H13.3926V6.84668Z" fill="white"/>
<path d="M13.3926 11.7314V14.5742H15.2744H17.1562V11.7314V8.88867H15.2744H13.3926V11.7314Z" fill="white"/>
<path d="M18.4375 11.1709V13.4532H18.8299C19.1422 13.4532 19.4064 13.5493 20.1992 13.9417L21.1842 14.4221L23.4344 14.3981C25.6365 14.3741 25.6926 14.3661 26.085 14.1819C26.5814 13.9336 27.0779 13.4372 27.2941 12.9727C27.3902 12.7725 27.6385 11.8196 27.8387 10.8506C28.0469 9.88169 28.2311 9.04087 28.2471 8.98481C28.2791 8.91274 27.2621 8.88872 23.3623 8.88872H18.4375V11.1709Z" fill="white"/>
<path d="M19.3744 32.9041C19.2223 33.0803 19.0541 33.2885 19.0061 33.3766C18.942 33.5047 18.8139 33.5367 18.3414 33.5688C17.4605 33.6248 16.892 33.9611 16.3715 34.7299C16.2754 34.866 16.1953 35.0021 16.1953 35.0262C16.1953 35.0502 18.3574 35.0742 21 35.0742C23.6426 35.0742 25.8047 35.0502 25.8047 35.0262C25.8047 35.0021 25.7246 34.866 25.6285 34.7299C25.108 33.9611 24.5395 33.6248 23.6586 33.5688C23.1861 33.5367 23.058 33.5047 22.9939 33.3766C22.9459 33.2885 22.7777 33.0803 22.6256 32.9041L22.3453 32.5918H21H19.6547L19.3744 32.9041Z" fill="#FECBA0"/>
<path d="M14.8738 34.994C14.7697 35.0421 14.9458 35.0581 15.3943 35.0581C15.8667 35.0581 16.0029 35.0341 15.8347 34.994C15.5064 34.914 15.066 34.914 14.8738 34.994Z" fill="#FFDDC1"/>
<path d="M26.1647 34.994C25.9966 35.0341 26.1327 35.0581 26.6052 35.0581C27.0536 35.0581 27.2298 35.0421 27.1257 34.994C26.9335 34.914 26.4931 34.914 26.1647 34.994Z" fill="#FFDDC1"/>
<path d="M14.3932 35.2264C14.0328 35.4426 13.7285 35.835 13.6244 36.2193C13.5764 36.4035 13.5203 36.5957 13.5043 36.6518C13.4963 36.6998 13.2721 36.8439 13.0158 36.9721C12.1109 37.4045 11.15 38.5896 11.0139 39.4465L10.9658 39.7188H20.9996H31.0334L30.9854 39.4465C30.8492 38.5896 29.8883 37.4045 28.9834 36.9721C28.7271 36.8439 28.5029 36.6998 28.4949 36.6518C28.4789 36.5957 28.4229 36.4035 28.3748 36.2113C28.2707 35.835 27.8943 35.3625 27.558 35.1863C27.3658 35.0902 26.3729 35.0742 20.9836 35.0742C14.9377 35.0742 14.6254 35.0822 14.3932 35.2264Z" fill="#FECBA0"/>
</g>
<defs>
<clipPath id="clip0_219_8960">
<rect width="41" height="41" fill="white" transform="translate(0.5)"/>
</clipPath>
</defs>
</svg>
