<svg width="26" height="26" viewBox="0 0 26 26" fill="none" xmlns="http://www.w3.org/2000/svg">
<path d="M13.0006 8.41211C11.7816 8.41211 10.6125 8.89555 9.75052 9.75609C8.88855 10.6166 8.4043 11.7838 8.4043 13.0008C8.4043 14.2177 8.88855 15.3849 9.75052 16.2454C10.6125 17.106 11.7816 17.5894 13.0006 17.5894C14.2196 17.5894 15.3887 17.106 16.2507 16.2454C17.1126 15.3849 17.5969 14.2177 17.5969 13.0008C17.5969 11.7838 17.1126 10.6166 16.2507 9.75609C15.3887 8.89555 14.2196 8.41211 13.0006 8.41211Z" fill="white"/>
<path fill-rule="evenodd" clip-rule="evenodd" d="M5.60353 0.408C10.5195 -0.136 15.4806 -0.136 20.3965 0.408C23.0822 0.707321 25.2474 2.8181 25.5628 5.50916C26.1457 10.4856 26.1457 15.5129 25.5628 20.4893C25.2474 23.1804 23.0822 25.2912 20.3979 25.5919C15.4815 26.136 10.5199 26.136 5.60353 25.5919C2.91788 25.2912 0.752667 23.1804 0.43729 20.4907C-0.145763 15.5138 -0.145763 10.4861 0.43729 5.50916C0.752667 2.8181 2.91788 0.707321 5.60353 0.408ZM20.0713 4.5279C19.6962 4.5279 19.3365 4.67665 19.0712 4.94143C18.806 5.20621 18.657 5.56533 18.657 5.93979C18.657 6.31424 18.806 6.67336 19.0712 6.93814C19.3365 7.20292 19.6962 7.35168 20.0713 7.35168C20.4463 7.35168 20.8061 7.20292 21.0713 6.93814C21.3365 6.67336 21.4855 6.31424 21.4855 5.93979C21.4855 5.56533 21.3365 5.20621 21.0713 4.94143C20.8061 4.67665 20.4463 4.5279 20.0713 4.5279ZM6.28237 12.9992C6.28237 11.2206 6.99012 9.51475 8.24993 8.25704C9.50973 6.99933 11.2184 6.29276 13 6.29276C14.7817 6.29276 16.4903 6.99933 17.7501 8.25704C19.0099 9.51475 19.7177 11.2206 19.7177 12.9992C19.7177 14.7779 19.0099 16.4837 17.7501 17.7414C16.4903 18.9991 14.7817 19.7057 13 19.7057C11.2184 19.7057 9.50973 18.9991 8.24993 17.7414C6.99012 16.4837 6.28237 14.7779 6.28237 12.9992Z" fill="white"/>
</svg>
