<svg width="42" height="42" viewBox="0 0 42 42" fill="none" xmlns="http://www.w3.org/2000/svg">
<g clip-path="url(#clip0_219_8942)">
<path d="M20.5195 0.676172C20.3674 0.844336 20.3594 0.94043 20.3594 3.59102C20.3594 6.23359 20.3674 6.32969 20.5275 6.53789C20.6557 6.69805 20.7598 6.74609 21 6.74609C21.2402 6.74609 21.3443 6.69805 21.4725 6.53789C21.6326 6.32969 21.6406 6.23359 21.6406 3.58301V0.844336L21.4564 0.676172C21.2082 0.435938 20.7437 0.435938 20.5195 0.676172Z" fill="black"/>
<path d="M20.5596 9.34863L20.3594 9.54082V12.3115V15.0822L20.5596 15.2744C20.6797 15.4025 20.8479 15.4746 21 15.4746C21.1521 15.4746 21.3203 15.4025 21.4404 15.2744L21.6406 15.0822V12.3115V9.54082L21.4404 9.34863C21.3203 9.22051 21.1521 9.14844 21 9.14844C20.8479 9.14844 20.6797 9.22051 20.5596 9.34863Z" fill="black"/>
<path d="M1.45293 11.2865C1.17266 11.4387 0.94043 11.6309 0.780273 11.8551L0.540039 12.2074V21V29.7926L0.780273 30.1449C1.07656 30.5693 1.74121 30.9297 2.22969 30.9297C2.55801 30.9297 16.2273 28.2951 16.876 28.1029C17.3004 27.9828 17.893 27.3902 18.0211 26.9578C18.1572 26.4854 18.1572 15.5146 18.0211 15.0422C17.893 14.6098 17.3004 14.0172 16.876 13.8971C16.0752 13.6648 8.25156 12.1914 8.06738 12.2395C7.75508 12.3195 7.63496 12.5438 7.71504 12.8961C7.78711 13.2324 7.93926 13.3686 8.32363 13.4406C8.47578 13.4727 10.3816 13.841 12.5678 14.2734C16.3395 15.0102 16.5557 15.0582 16.7318 15.2664L16.916 15.4826V21.008V26.5414L16.6998 26.7576C16.4916 26.9578 16.0832 27.0459 9.33262 28.3672L2.18164 29.7605L1.96543 29.5924L1.74121 29.4322V21V12.5678L1.96543 12.3996L2.18164 12.2395L3.9834 12.5918C5.55293 12.9041 5.80117 12.9281 5.97734 12.84C6.37773 12.6238 6.43379 12.0633 6.08145 11.8311C5.86523 11.6949 2.70215 11.0703 2.22969 11.0703C2.02148 11.0703 1.7252 11.1504 1.45293 11.2865Z" fill="black"/>
<path d="M38.5371 11.2385C38.1207 11.3266 36.3029 11.6869 34.4932 12.0393C26.4133 13.6168 25.14 13.8811 24.8758 14.0012C24.5154 14.1773 24.091 14.6738 23.9789 15.0662C23.9229 15.2504 23.8828 15.9551 23.8828 16.8119C23.8828 18.1652 23.8908 18.2693 24.051 18.4775C24.2031 18.6617 24.2672 18.6857 24.5154 18.6377C25.052 18.5496 25.084 18.4375 25.084 16.868C25.084 15.5387 25.092 15.4746 25.2682 15.2664C25.4443 15.0662 25.6525 15.0182 28.6154 14.4336C30.3531 14.0973 33.5803 13.4646 35.7904 13.0242L39.8184 12.2395L40.0346 12.4076L40.2588 12.5678V21V29.4322L40.0346 29.5924L39.8184 29.7605L37.1117 29.232C34.1889 28.6555 34.1488 28.6555 33.9006 29.0959C33.7324 29.4002 33.8445 29.7125 34.1568 29.8406C34.5172 29.9928 39.3859 30.9297 39.7863 30.9297C40.2588 30.9297 40.9234 30.5613 41.2197 30.1449L41.46 29.7926V21V12.2074L41.2197 11.8551C40.8994 11.3906 40.2668 11.0703 39.7062 11.0783C39.482 11.0783 38.9535 11.1584 38.5371 11.2385Z" fill="black"/>
<path d="M20.5275 18.0852C20.3674 18.2934 20.3594 18.3895 20.3594 21C20.3594 23.6105 20.3674 23.7066 20.5275 23.9148C20.6557 24.075 20.7598 24.123 21 24.123C21.2402 24.123 21.3443 24.075 21.4725 23.9148C21.6326 23.7066 21.6406 23.6105 21.6406 21C21.6406 18.3895 21.6326 18.2934 21.4725 18.0852C21.3443 17.925 21.2402 17.877 21 17.877C20.7598 17.877 20.6557 17.925 20.5275 18.0852Z" fill="black"/>
<path d="M24.083 20.2393L23.8828 20.4314V23.5785C23.8828 26.7096 23.8828 26.7256 24.075 27.126C24.2672 27.5424 24.6436 27.9268 24.9959 28.0629C25.2682 28.167 31.0898 29.3201 31.6504 29.3762C32.0428 29.4162 32.1068 29.4082 32.267 29.232C32.4191 29.0719 32.4352 28.9998 32.3711 28.7356C32.3311 28.5674 32.267 28.3912 32.2189 28.3432C32.1709 28.2951 30.6334 27.9668 28.7916 27.6064C25.6525 26.9818 25.4443 26.9338 25.2682 26.7336L25.084 26.5174V23.5145C25.084 21.7047 25.052 20.4475 25.0039 20.3594C24.9398 20.2313 24.5395 20.0391 24.3473 20.0391C24.3072 20.0391 24.1871 20.1272 24.083 20.2393Z" fill="black"/>
<path d="M20.5596 26.7256L20.3594 26.9178V29.6885V32.4592L20.5596 32.6514C20.8158 32.9157 21.1842 32.9157 21.4404 32.6514L21.6406 32.4592V29.6885V26.9178L21.4404 26.7256C21.3203 26.5975 21.1521 26.5254 21 26.5254C20.8479 26.5254 20.6797 26.5975 20.5596 26.7256Z" fill="black"/>
<path d="M20.5275 35.462C20.3674 35.6702 20.3594 35.7663 20.3594 38.4169V41.1556L20.5436 41.3238C20.8158 41.58 21.2562 41.564 21.4725 41.2917C21.6326 41.0835 21.6406 40.9874 21.6406 38.3769C21.6406 35.7663 21.6326 35.6702 21.4725 35.462C21.3443 35.3019 21.2402 35.2538 21 35.2538C20.7598 35.2538 20.6557 35.3019 20.5275 35.462Z" fill="black"/>
<path d="M38.0966 12.6238C36.9195 12.856 36.8154 12.888 36.8554 13.0322C36.8794 13.1203 36.8954 16.7798 36.8954 21.1681V29.1439L38.2167 29.4001C39.7863 29.6964 39.9064 29.6964 40.1066 29.4802C40.2507 29.3201 40.2587 29.0478 40.2827 21.04L40.2988 12.7759L40.1306 12.5677C39.9144 12.2874 39.7382 12.2955 38.0966 12.6238Z" fill="#ECC115"/>
<path d="M30.9857 14.0251C25.9648 15.0181 25.4523 15.1302 25.3162 15.3063C25.1801 15.4745 25.1641 15.6347 25.1641 16.8919C25.1641 18.2612 25.1641 18.2853 24.9639 18.4774C24.8598 18.5896 24.7156 18.6776 24.6436 18.6776C24.5475 18.6776 24.5234 18.7978 24.5234 19.3583C24.5234 19.9188 24.5475 20.039 24.6436 20.039C24.7156 20.039 24.8598 20.1271 24.9639 20.2392L25.1641 20.4313V23.4743V26.5173L25.3482 26.7095C25.5084 26.8937 25.8527 26.9737 28.8477 27.5583C32.4031 28.247 32.4512 28.263 32.4512 28.7274C32.4512 28.9356 32.4832 28.9517 33.2439 29.0958L33.7484 29.1919L33.9486 28.9437C34.1969 28.6233 34.333 28.6233 35.6863 28.8956C36.2469 29.0077 36.7354 29.0798 36.7594 29.0478C36.8314 28.9837 36.8795 13.5286 36.8154 13.1683C36.7834 12.9921 36.7273 12.912 36.6312 12.92C36.5592 12.928 34.0127 13.4245 30.9857 14.0251Z" fill="#ECEC6B"/>
<path d="M13.4727 21.0001V27.5024L13.6568 27.4624C13.7529 27.4384 14.4256 27.3022 15.1543 27.1661C16.1393 26.9739 16.5236 26.8698 16.6598 26.7417L16.8359 26.5815V21.0001V15.4187L16.6598 15.2585C16.5236 15.1304 16.1393 15.0263 15.1543 14.8341C14.4256 14.6979 13.7529 14.5618 13.6568 14.5378L13.4727 14.4978V21.0001Z" fill="#40C1EC"/>
<path d="M1.89336 12.5197C1.74922 12.6799 1.74121 12.9361 1.74121 21C1.74121 29.0639 1.74922 29.3201 1.89336 29.4803C1.98145 29.5764 2.1416 29.6484 2.26973 29.6484C2.46191 29.6484 12.9762 27.6225 13.3285 27.5184C13.4646 27.4783 13.4727 27.102 13.4727 21C13.4727 15.899 13.4486 14.5217 13.3766 14.4977C13.3205 14.4736 12.0873 14.2254 10.6459 13.9451C7.85918 13.4086 7.74707 13.3686 7.65098 12.9121C7.61094 12.7039 7.56289 12.6719 7.15449 12.5918C6.90625 12.5357 6.63398 12.4797 6.53789 12.4557C6.41777 12.4316 6.32969 12.4797 6.2416 12.6238C5.97734 13.0162 5.91328 13.0242 4.13555 12.6719C3.23066 12.4957 2.38984 12.3516 2.26973 12.3516C2.1416 12.3516 1.98145 12.4236 1.89336 12.5197Z" fill="#6BC1EC"/>
</g>
<defs>
<clipPath id="clip0_219_8942">
<rect width="41" height="41" fill="white" transform="translate(0.5 0.5)"/>
</clipPath>
</defs>
</svg>
