<svg width="36" height="37" viewBox="0 0 36 37" fill="none" xmlns="http://www.w3.org/2000/svg">
<rect y="0.806152" width="36" height="36" rx="18" fill="#FD9E78"/>
<path d="M24.6468 11.254C23.6313 11.9545 22.5831 12.7969 21.3477 13.8996C19.5555 15.4993 17.0145 18.2632 15.2503 20.535C14.9695 20.8899 14.7215 21.1739 14.6981 21.1597C14.6747 21.1455 13.664 20.4308 12.452 19.5742C11.2353 18.7129 10.2292 18.0124 10.2152 18.0124C10.1965 18.0124 9.87357 18.3248 9.49453 18.7129L8.80664 19.4133L9.16696 19.9055C11.1136 22.589 13.5563 26.1717 14.4454 27.653L14.7636 28.1831L15.1286 27.5489C16.3406 25.4476 18.2873 22.3902 19.7099 20.3315C20.6224 19.0205 21.5349 17.7616 21.6472 17.6574C21.708 17.6054 21.8858 17.3829 22.0543 17.1605C23.6921 14.9503 25.8166 12.5603 27.4311 11.112L27.5948 10.9653L26.3314 10.9606H25.0679L24.6468 11.254Z" fill="white"/>
</svg>
