<svg width="26" height="22" viewBox="0 0 26 22" fill="none" xmlns="http://www.w3.org/2000/svg">
<path d="M24.2997 0.285028C24.0618 0.343059 0.652125 9.29722 0.390986 9.43069C-0.131292 9.69764 -0.131292 10.6493 0.396789 10.9221C0.483835 10.9685 1.91139 11.4676 3.56527 12.0247L6.56547 13.046L13.6568 8.71111C17.5507 6.32604 20.7946 4.37621 20.8643 4.37621C20.9397 4.3704 20.9803 4.40522 20.9803 4.48646C20.9803 4.5619 19.309 6.14034 15.7169 9.4481C12.8212 12.1117 10.3955 14.3459 10.3317 14.4097C10.2272 14.52 10.1982 14.7463 10.0125 17.3055C9.90224 18.8375 9.80939 20.1374 9.80939 20.1954C9.80939 20.3811 10.0705 20.59 10.3027 20.59C10.5 20.59 10.6218 20.4856 12.2293 18.9071L13.9412 17.23L14.6492 17.7697C16.7615 19.383 19.9416 21.7739 20.1215 21.8783C20.3652 22.0292 20.9049 22.0408 21.1602 21.9073C21.3459 21.8087 21.6013 21.5533 21.6941 21.3734C21.7289 21.3096 22.7097 16.9167 23.8761 11.6185C25.3617 4.86366 26 1.87507 26 1.63715C26 1.23093 25.8607 0.90596 25.588 0.644821C25.2514 0.325651 24.7291 0.180573 24.2997 0.285028Z" fill="white"/>
</svg>
